<?xml version="1.0" encoding="UTF-8"?>
<svg width="307px" height="72px" viewBox="0 0 307 72" version="1.1" xmlns="http://www.w3.org/2000/svg" xmlns:xlink="http://www.w3.org/1999/xlink">
    <!-- Generator: Sketch 44.1 (41455) - http://www.bohemiancoding.com/sketch -->
    <title>Logo</title>
    <desc>Created with Sketch.</desc>
    <defs></defs>
    <g id="--------▶︎-Icons" stroke="none" stroke-width="1" fill="none" fill-rule="evenodd">
        <g id="1.1-Icon-Finder" transform="translate(-562.000000, -25.000000)">
            <g id="logo-/-iManage_horizontal_White" transform="translate(562.000000, 25.000000)">
                <g id="iManage_horizontal_White">
                    <g id="Group-2">
                        <path d="M89.7563894,35.0568 C75.981518,67.5228 -8.99764151,75.1866 10.508705,27.2601 C17.356518,10.4352 32.0931389,-1.125 50.543482,1.6881 C63.6303602,3.6834 95.1009434,21.159 89.7563894,35.0568" id="Fill-1" fill="#6778F2"></path>
                        <path d="M21.6138508,0.285 C17.1367925,0.2856 12.9340909,0.9168 9.22787307,2.2923 C-6.47800172,8.7381 1.48765009,43.9296 10.1328902,56.2848 C17.9676672,67.4811 29.9559177,71.9394 42.5063894,71.9394 C51.6259005,71.9394 61.0428816,69.5847 69.3762436,65.751 C84.0918525,58.9812 88.4848628,49.9623 86.4265866,40.7865 C76.8367067,53.604 55.681518,61.3056 37.7030446,61.3056 C17.15,61.3056 0.74712693,51.2439 10.508705,27.2601 C15.5386792,14.9022 24.8247856,5.3847 36.7118782,2.3166 C31.5321184,1.0101 26.4102916,0.2847 21.6138508,0.285" id="Fill-2" fill="#92DEFF"></path>
                        <path d="M36.7118782,2.3166 C24.8247856,5.3847 15.5386792,14.9022 10.508705,27.2601 C0.74712693,51.2439 17.15,61.3056 37.7030446,61.3056 C55.681518,61.3056 76.8367067,53.604 86.4265866,40.7865 C82.8020154,24.6252 59.1788165,7.9836 36.7118782,2.3166" id="Fill-3" fill="#3B69F2"></path>
                        <path d="M55.0751715,23.6217 C52.2544597,23.6217 49.7126072,24.8346 47.9421955,26.7654 C46.1717839,24.8346 43.6296312,23.6217 40.8092196,23.6217 C35.4730703,23.6217 31.1319897,27.9603 31.1319897,33.2931 L31.1319897,45.1524 L36.2198971,45.1524 L36.2198971,33.2931 C36.2198971,30.7641 38.2787736,28.7067 40.8092196,28.7067 C43.3393654,28.7067 45.3982419,30.7641 45.3982419,33.2931 L45.3982419,45.1524 L50.4861492,45.1524 L50.4861492,33.2931 C50.4861492,30.7641 52.5447256,28.7067 55.0751715,28.7067 C57.6056175,28.7067 59.6638937,30.7641 59.6638937,33.2931 L59.6638937,45.1524 L64.751801,45.1524 L64.751801,33.2931 C64.751801,27.9603 60.4107204,23.6217 55.0751715,23.6217" id="Fill-4" fill="#FFFFFF"></path>
                        <path d="M28.8371784,16.3779 C30.8789451,16.3779 32.5121784,18.0105 32.5121784,20.0511 C32.5121784,22.0464 30.8789451,23.679 28.8371784,23.679 C26.8404374,23.679 25.2072041,22.0464 25.2072041,20.0511 C25.2072041,18.0105 26.8404374,16.3779 28.8371784,16.3779" id="Fill-5" fill="#FFFFFF"></path>
                    </g>
                    <g id="Group-3" transform="translate(118.867925, 16.363636)" fill="#FFFDFD">
                        <polygon id="Fill-6" points="0.847984563 10.9582636 6.65090051 10.9582636 6.65090051 34.2466636 0.847984563 34.2466636"></polygon>
                        <polyline id="Fill-7" points="47.911578 34.2466636 41.7889794 34.2466636 41.7889794 14.2207636 32.4725557 34.2466636 27.8400086 34.2466636 18.5235849 14.2207636 18.5235849 34.2466636 12.4009863 34.2466636 12.4009863 0.0142636364 18.2573328 0.0142636364 30.1828473 24.7219636 42.0555317 0.0142636364 47.911578 0.0142636364 47.911578 34.2466636"></polyline>
                        <path d="M76.8213979,9.45136364 L76.8213979,34.2466636 L71.018482,34.2466636 L71.018482,30.8944636 C69.4737993,33.3952636 66.2262436,34.8847636 63.351801,34.8847636 C55.7913808,34.8847636 50.62753,28.8724636 50.62753,21.8485636 C50.62753,14.8252636 55.7913808,8.81266364 63.351801,8.81266364 C66.2262436,8.81266364 69.4737993,10.3024636 71.018482,12.8032636 L71.018482,9.45136364 L76.8213979,9.45136364 L76.8213979,9.45136364 Z M71.018482,21.8485636 C71.018482,17.5918636 68.1434391,13.9738636 63.6708834,13.9738636 C59.3054889,13.9738636 56.430446,17.5918636 56.430446,21.8485636 C56.430446,26.1052636 59.3054889,29.7238636 63.6708834,29.7238636 C68.1434391,29.7238636 71.018482,26.1052636 71.018482,21.8485636 L71.018482,21.8485636 Z" id="Fill-8"></path>
                        <path d="M80.5921527,9.45136364 L86.3953688,9.45136364 L86.3953688,12.9094636 C87.9391509,10.2493636 90.8141938,8.81266364 94.4870926,8.81266364 C98.054331,8.81266364 100.556861,10.0894636 101.940952,12.1648636 C103.165352,14.0272636 103.537864,16.1023636 103.537864,19.5076636 L103.537864,34.2466636 L97.7349485,34.2466636 L97.7349485,21.4231636 C97.7349485,17.1661636 96.5105489,13.9204636 92.357976,13.9204636 C88.3116638,13.9204636 86.3953688,17.1661636 86.3953688,21.4231636 L86.3953688,34.2466636 L80.5921527,34.2466636 L80.5921527,9.45136364" id="Fill-9"></path>
                        <path d="M132.575858,9.45136364 L132.575858,34.2466636 L126.772942,34.2466636 L126.772942,30.8944636 C125.228259,33.3952636 121.980703,34.8847636 119.106561,34.8847636 C111.546141,34.8847636 106.38199,28.8724636 106.38199,21.8485636 C106.38199,14.8252636 111.546141,8.81266364 119.106561,8.81266364 C121.980703,8.81266364 125.228259,10.3024636 126.772942,12.8032636 L126.772942,9.45136364 L132.575858,9.45136364 L132.575858,9.45136364 Z M126.772942,21.8485636 C126.772942,17.5918636 123.897899,13.9738636 119.425343,13.9738636 C115.059949,13.9738636 112.185206,17.5918636 112.185206,21.8485636 C112.185206,26.1052636 115.059949,29.7238636 119.425343,29.7238636 C123.897899,29.7238636 126.772942,26.1052636 126.772942,21.8485636 L126.772942,21.8485636 Z" id="Fill-10"></path>
                        <path d="M161.485978,35.4700636 C161.485978,43.7710636 156.480918,47.2825636 148.229202,47.2825636 C139.976587,47.2825636 136.037136,42.2278636 135.717453,37.0666636 L141.5744,37.0666636 C141.893782,39.7267636 144.022899,42.1216636 148.229202,42.1216636 C152.860849,42.1216636 155.682762,40.1524636 155.682762,35.4700636 L155.682762,30.8944636 C154.138979,33.3952636 150.890523,34.8847636 148.016381,34.8847636 C140.455961,34.8847636 135.29181,28.8724636 135.29181,21.8485636 C135.29181,14.8252636 140.455961,8.81266364 148.016381,8.81266364 C150.890523,8.81266364 154.138979,10.3024636 155.682762,12.8032636 L155.682762,9.45136364 L161.485978,9.45136364 L161.485978,35.4700636 L161.485978,35.4700636 Z M141.095026,21.8485636 C141.095026,26.1052636 143.970069,29.7238636 148.335163,29.7238636 C152.807719,29.7238636 155.682762,26.1052636 155.682762,21.8485636 C155.682762,17.5918636 152.807719,13.9738636 148.335163,13.9738636 C143.970069,13.9738636 141.095026,17.5918636 141.095026,21.8485636 L141.095026,21.8485636 Z" id="Fill-11"></path>
                        <path d="M170.057376,23.6047636 C170.111106,27.1696636 171.86771,30.0430636 176.552187,30.0430636 C179.853774,30.0430636 181.077873,28.5529636 181.823199,26.7973636 L187.679846,26.7973636 C186.881089,31.0540636 182.887607,34.8847636 176.552187,34.8847636 C168.193911,34.8847636 164.147298,28.6063636 164.147298,21.8485636 C164.147298,14.3995636 168.566424,8.81266364 176.392496,8.81266364 C182.834777,8.81266364 187.892667,13.6546636 187.892667,19.9867636 C187.892667,20.8381636 187.892667,22.0084636 187.626115,23.6047636 L170.057376,23.6047636 L170.057376,23.6047636 Z M170.111106,19.2946636 L182.249443,19.2946636 C182.249443,15.8362636 179.746913,13.6546636 176.232804,13.6546636 C172.825557,13.6546636 170.111106,15.6232636 170.111106,19.2946636 L170.111106,19.2946636 Z" id="Fill-12"></path>
                        <path d="M3.72692967,0.0142636364 C5.77139794,0.0142636364 7.40703259,1.64896364 7.40703259,3.69256364 C7.40703259,5.69056364 5.77139794,7.32526364 3.72692967,7.32526364 C1.72778731,7.32526364 0.0921526587,5.69056364 0.0921526587,3.69256364 C0.0921526587,1.64896364 1.72778731,0.0142636364 3.72692967,0.0142636364" id="Fill-13"></path>
                    </g>
                </g>
            </g>
        </g>
    </g>
</svg>